<?xml version="1.0" encoding="utf-8"?>
<!-- Generator: Adobe Illustrator 24.1.3, SVG Export Plug-In . SVG Version: 6.00 Build 0)  -->
<svg version="1.1" id="Layer_1" xmlns="http://www.w3.org/2000/svg" xmlns:xlink="http://www.w3.org/1999/xlink" x="0px" y="0px"
	 viewBox="0 0 1400 1000" style="enable-background:new 0 0 1400 1000;" xml:space="preserve">
<style type="text/css">
	.st0{fill:#87272B;}
</style>
<g>
	<path class="st0" d="M560.66,557.08h20.29V415.56h-15.22c-3.33,6.47-10.09,11.53-20.29,15.16v15.16h15.22V557.08z"/>
	<path class="st0" d="M762.15,557.08l-30.44-141.52h-20.29l-29.95,139.25l-34.65-83.66l30.52-55.59h-25.37l-30.44,60.65v-60.65
		h-20.29v141.52h20.29v-45.49l10.15-20.22l25.36,65.71h23.94h1.43h18.86l7.61-35.38h25.37l7.61,35.38H762.15z M711.42,506.54
		l10.14-60.66l10.15,60.66H711.42z"/>
	<path class="st0" d="M844.58,455.99c0-26.96-11.84-40.43-35.51-40.43h-35.51v141.52h20.29v-65.71h15.22
		c11.47,0,20.25-3.01,26.36-9.04C841.53,476.3,844.58,467.52,844.58,455.99z M822.82,466.26c-0.98,2.68-2.59,4.75-4.83,6.2
		c-2.25,1.45-4.84,2.43-7.77,2.96c-2.93,0.53-6.7,0.79-11.29,0.79h-5.08v-45.49h5.08c5.17,0,9.33,0.38,12.48,1.14
		c3.14,0.77,5.71,2.15,7.69,4.15s3.34,4.57,4.08,7.7s1.11,7.23,1.11,12.28C824.29,460.15,823.8,463.57,822.82,466.26z"/>
	<path class="st0" d="M876.37,491.37h15.21c11.47,0,20.25-3.01,26.36-9.04c6.1-6.03,9.15-14.81,9.15-26.34
		c0-26.96-11.83-40.43-35.51-40.43h-35.51v141.52h20.3V491.37z M876.37,430.72h5.07c5.18,0,9.34,0.38,12.48,1.14
		c3.15,0.77,5.71,2.15,7.69,4.15s3.34,4.57,4.08,7.7s1.11,7.23,1.11,12.28c0,4.16-0.49,7.58-1.46,10.27
		c-0.98,2.68-2.59,4.75-4.84,6.2s-4.83,2.43-7.77,2.96c-2.93,0.53-6.7,0.79-11.29,0.79h-5.07V430.72z"/>
	<path class="st0" d="M975.6,415.56h-20.29l-30.44,141.52h20.3l7.6-35.38h25.37l7.61,35.38h20.29L975.6,415.56z M955.31,506.54
		l10.15-60.66l10.14,60.66H955.31z"/>
	<path class="st0" d="M567.22,573.66c-4.62,0-8.07,3.33-8.07,8.99c0,5.66,3.45,9,8.07,9c4.61,0,8.07-3.34,8.07-9
		C575.29,576.99,571.83,573.66,567.22,573.66z M567.22,588.8c-2.86,0-4.87-2.16-4.87-6.15c0-3.98,2.01-6.14,4.87-6.14
		c2.87,0,4.87,2.16,4.87,6.14C572.09,586.64,570.09,588.8,567.22,588.8z"/>
	<polygon class="st0" points="589.6,585.83 589.45,585.83 581.18,573.9 578.33,573.9 578.33,591.41 581.51,591.41 581.51,579.48 
		581.66,579.48 589.94,591.41 592.77,591.41 592.77,573.9 589.6,573.9 	"/>
	<polygon class="st0" points="599.42,583.97 607.08,583.97 607.08,581.31 599.42,581.31 599.42,576.56 607.67,576.56 607.67,573.9 
		596.24,573.9 596.24,591.41 607.74,591.41 607.74,588.75 599.42,588.75 	"/>
	<polygon class="st0" points="631.08,573.9 627.19,573.9 620.33,581.94 620.12,581.94 620.12,573.9 616.94,573.9 616.94,591.41 
		620.12,591.41 620.12,586.19 622.07,583.9 627.31,591.41 631.14,591.41 624.28,581.76 	"/>
	<path class="st0" d="M638.35,573.9l-6.19,17.51h3.4l1.45-4.32h6.61l1.46,4.32h3.39l-6.19-17.51H638.35z M637.87,584.54l2.37-7.05
		h0.14l2.38,7.05H637.87z"/>
	<path class="st0" d="M657.39,573.9h-6.59v17.51h3.19v-5.92h3.36c4.06,0,6.24-2.43,6.24-5.79
		C663.59,576.35,661.43,573.9,657.39,573.9z M656.92,582.88h-2.93v-6.33h2.91c2.39,0,3.45,1.28,3.45,3.15
		C660.35,581.56,659.29,582.88,656.92,582.88z"/>
	<path class="st0" d="M672.95,573.9h-6.59v17.51h3.19v-5.92h3.36c4.06,0,6.24-2.43,6.24-5.79
		C679.15,576.35,676.99,573.9,672.95,573.9z M672.48,582.88h-2.93v-6.33h2.91c2.39,0,3.45,1.28,3.45,3.15
		C675.91,581.56,674.85,582.88,672.48,582.88z"/>
	<path class="st0" d="M685.02,573.9l-6.19,17.51h3.4l1.45-4.32h6.61l1.46,4.32h3.39l-6.19-17.51H685.02z M684.54,584.54l2.38-7.05
		h0.13l2.38,7.05H684.54z"/>
	<path class="st0" d="M699.25,587.85c-1.05,0-1.9,0.84-1.89,1.86c-0.01,1.05,0.84,1.89,1.89,1.89c1.01,0,1.88-0.84,1.89-1.89
		C701.13,588.69,700.26,587.85,699.25,587.85z"/>
	<rect x="709.95" y="573.9" class="st0" width="3.18" height="17.51"/>
	<polygon class="st0" points="727.87,585.83 727.72,585.83 719.45,573.9 716.6,573.9 716.6,591.41 719.78,591.41 719.78,579.48 
		719.93,579.48 728.21,591.41 731.04,591.41 731.04,573.9 727.87,573.9 	"/>
	<polygon class="st0" points="734.51,591.41 737.69,591.41 737.69,583.97 745,583.97 745,581.31 737.69,581.31 737.69,576.56 
		745.77,576.56 745.77,573.9 734.51,573.9 	"/>
	<rect x="748.67" y="573.9" class="st0" width="3.18" height="17.51"/>
	<polygon class="st0" points="766.59,585.83 766.44,585.83 758.17,573.9 755.32,573.9 755.32,591.41 758.5,591.41 758.5,579.48 
		758.65,579.48 766.93,591.41 769.76,591.41 769.76,573.9 766.59,573.9 	"/>
	<rect x="773.23" y="573.9" class="st0" width="3.18" height="17.51"/>
	<polygon class="st0" points="779.1,576.56 784.53,576.56 784.53,591.41 787.69,591.41 787.69,576.56 793.12,576.56 793.12,573.9 
		779.1,573.9 	"/>
	<polygon class="st0" points="799.01,583.97 806.67,583.97 806.67,581.31 799.01,581.31 799.01,576.56 807.26,576.56 807.26,573.9 
		795.83,573.9 795.83,591.41 807.33,591.41 807.33,588.75 799.01,588.75 	"/>
	<path class="st0" d="M825.88,582.34v-0.17c1.71-0.41,3.07-1.6,3.07-3.73c0-2.61-1.89-4.54-5.7-4.54h-6.73v17.51h7.12
		c4.02,0,6-2.05,6-4.77C829.64,583.99,827.75,582.43,825.88,582.34z M819.71,576.51h3.22c1.87,0,2.84,0.99,2.84,2.34
		c0,1.54-1.26,2.5-2.91,2.5h-3.15V576.51z M823.13,588.76h-3.42v-5.13h3.51c1.96,0,3.18,1.2,3.18,2.76
		C826.4,587.78,825.44,588.76,823.13,588.76z"/>
	<path class="st0" d="M845.2,579.5c0-3.34-2.16-5.6-6.19-5.6h-6.59v17.51h3.18V585h3.25l3.45,6.41h3.55l-3.8-6.94
		C844.11,583.64,845.2,581.88,845.2,579.5z M838.54,582.36h-2.94v-5.81h2.92c2.38,0,3.44,1.09,3.44,2.95
		C841.96,581.36,840.9,582.36,838.54,582.36z"/>
	<path class="st0" d="M855.78,573.66c-4.62,0-8.07,3.33-8.07,8.99c0,5.66,3.45,9,8.07,9c4.61,0,8.07-3.34,8.07-9
		C863.85,576.99,860.39,573.66,855.78,573.66z M855.78,588.8c-2.86,0-4.87-2.16-4.87-6.15c0-3.98,2.01-6.14,4.87-6.14
		s4.87,2.16,4.87,6.14C860.65,586.64,858.64,588.8,855.78,588.8z"/>
	<polygon class="st0" points="865.35,576.56 870.78,576.56 870.78,591.41 873.94,591.41 873.94,576.56 879.37,576.56 879.37,573.9 
		865.35,573.9 	"/>
	<polygon class="st0" points="893.41,581.31 885.26,581.31 885.26,573.9 882.08,573.9 882.08,591.41 885.26,591.41 885.26,583.97 
		893.41,583.97 893.41,591.41 896.6,591.41 896.6,573.9 893.41,573.9 	"/>
	<polygon class="st0" points="903.25,583.97 910.9,583.97 910.9,581.31 903.25,581.31 903.25,576.56 911.5,576.56 911.5,573.9 
		900.07,573.9 900.07,591.41 911.56,591.41 911.56,588.75 903.25,588.75 	"/>
	<path class="st0" d="M927.55,579.5c0-3.34-2.17-5.6-6.2-5.6h-6.59v17.51h3.18V585h3.25l3.45,6.41h3.55l-3.8-6.94
		C926.46,583.64,927.55,581.88,927.55,579.5z M920.88,582.36h-2.94v-5.81h2.92c2.38,0,3.44,1.09,3.44,2.95
		C924.3,581.36,923.24,582.36,920.88,582.36z"/>
	<polygon class="st0" points="941.82,581.31 933.68,581.31 933.68,573.9 930.49,573.9 930.49,591.41 933.68,591.41 933.68,583.97 
		941.82,583.97 941.82,591.41 945.01,591.41 945.01,573.9 941.82,573.9 	"/>
	<path class="st0" d="M956.11,573.66c-4.62,0-8.07,3.33-8.07,8.99c0,5.66,3.45,9,8.07,9c4.61,0,8.07-3.34,8.07-9
		C964.18,576.99,960.72,573.66,956.11,573.66z M956.11,588.8c-2.86,0-4.87-2.16-4.87-6.15c0-3.98,2.01-6.14,4.87-6.14
		c2.87,0,4.87,2.16,4.87,6.14C960.98,586.64,958.98,588.8,956.11,588.8z"/>
	<path class="st0" d="M974.85,573.66c-4.62,0-8.08,3.33-8.08,8.99c0,5.66,3.46,9,8.08,9c4.61,0,8.07-3.34,8.07-9
		C982.92,576.99,979.46,573.66,974.85,573.66z M974.85,588.8c-2.86,0-4.88-2.16-4.88-6.15c0-3.98,2.02-6.14,4.88-6.14
		c2.86,0,4.87,2.16,4.87,6.14C979.72,586.64,977.71,588.8,974.85,588.8z"/>
	<path class="st0" d="M992.03,573.9h-6.07v17.51h5.95c5.36,0,8.53-3.3,8.53-8.77C1000.44,577.18,997.27,573.9,992.03,573.9z
		 M991.76,588.66h-2.62v-12.02h2.71c3.57,0,5.43,1.99,5.43,6C997.28,586.66,995.42,588.66,991.76,588.66z"/>
	<path class="st0" d="M1004.15,587.85c-1.05,0-1.9,0.84-1.89,1.86c-0.01,1.05,0.84,1.89,1.89,1.89c1.01,0,1.88-0.84,1.89-1.89
		C1006.03,588.69,1005.16,587.85,1004.15,587.85z"/>
	<path class="st0" d="M463.84,393.79c-10.74,34.38-22.64,72.35-33.35,106.67c10.7,33.96,22.37,70.99,33.19,105.15
		c0.06,0.2,0.12,0.4,0.19,0.6c0.05-0.18,0.11-0.35,0.17-0.53c10.8-34.2,22.43-71.21,33.19-105.22
		C486.49,466.14,474.61,428.17,463.84,393.79z M463.84,604.64c-0.01-0.1-0.01-0.17,0-0.2C463.85,604.47,463.85,604.54,463.84,604.64
		z M458.29,545.49v-68.93h-9.4v-9.4c6.29-2.25,10.47-5.38,12.53-9.4h9.4v87.73H458.29z"/>
	<path class="st0" d="M503.24,497.63h30.49c-18.82-29.4-40.5-63.21-59.19-92.37C483.66,434.55,494.26,468.6,503.24,497.63z"/>
	<path class="st0" d="M501.38,509.57c-2.09,6.32-3.82,12.8-6.35,19.02c-0.96,2.96-1.9,5.92-2.83,8.91c-0.13,0.8-0.17,1.63-0.4,2.39
		c-3.86,12.4-7.71,24.81-11.6,37.21c-1.3,4.12-3.79,12-5.42,17.16c19.02-29.06,39.94-61.38,58.82-90.78h-30.16
		C502.71,505.68,502.04,507.61,501.38,509.57z"/>
	<path class="st0" d="M453.15,405.26c-18.69,29.16-40.37,62.98-59.19,92.37h30.49C433.43,468.6,444.04,434.55,453.15,405.26z"/>
	<path class="st0" d="M435.89,539.9c-0.23-0.76-0.27-1.6-0.4-2.39c-0.93-2.99-1.86-5.95-2.83-8.91c-2.53-6.22-4.26-12.7-6.35-19.02
		c-0.66-1.96-1.33-3.89-2.06-6.09H394.1c18.89,29.39,39.8,61.72,58.82,90.78c-1.63-5.15-4.12-13.03-5.42-17.16
		C443.61,564.7,439.75,552.3,435.89,539.9z"/>
</g>
</svg>
